<?xml version="1.0" encoding="utf-8"?>
<!-- Generator: Adobe Illustrator 15.0.2, SVG Export Plug-In . SVG Version: 6.00 Build 0)  -->
<!DOCTYPE svg PUBLIC "-//W3C//DTD SVG 1.1//EN" "http://www.w3.org/Graphics/SVG/1.1/DTD/svg11.dtd">
<svg version="1.1" xmlns="http://www.w3.org/2000/svg" xmlns:xlink="http://www.w3.org/1999/xlink" x="0px" y="0px" width="462px"
	 height="142px" viewBox="0 0 462 142" enable-background="new 0 0 462 142" xml:space="preserve">
<g id="circuit_board_texture">
	<g>
		<g>
			<g>
				<defs>
					<path id="SVGID_1_" d="M71.353,28.149c-0.063-0.058,266.906-0.075,300.752,5.036c43.03,6.512,69.868,18.242,69.315,36.653
						c-0.081,16.108-18.853,33.02-70.67,38.439c-33.984,3.745-279.424,3.764-303.719,2.652
						C83.884,86.374,85.324,54.035,71.353,28.149z"/>
				</defs>
				<clipPath id="SVGID_2_">
					<use xlink:href="#SVGID_1_"  overflow="visible"/>
				</clipPath>
			</g>
		</g>
		<g>
			<g>
				<defs>
					<path id="SVGID_3_" d="M71.353,28.149c-0.063-0.058,266.906-0.075,300.752,5.036c43.03,6.512,69.868,18.242,69.315,36.653
						c-0.081,16.108-18.853,33.02-70.67,38.439c-33.984,3.745-279.424,3.764-303.719,2.652
						C83.884,86.374,85.324,54.035,71.353,28.149z"/>
				</defs>
				<clipPath id="SVGID_4_">
					<use xlink:href="#SVGID_3_"  overflow="visible"/>
				</clipPath>
				<g clip-path="url(#SVGID_4_)">
					<path fill="#294F23" d="M415,126.856c-127,2.115-254,4.229-381,6.344C83.258,101.939,83.258,30.06,34-1.2
						c127,2.115,254,4.229,381,6.343C459.608,33.453,459.608,98.548,415,126.856z"/>
					<path fill="none" stroke="#FFFFFF" stroke-miterlimit="10" d="M322.983,117.694c-1.091-3.736-2.664-7.808-4.726-12.131
						c16.879-26.49,15.462-61.591-4.24-86.293"/>
					<path fill="none" stroke="#FFFFFF" stroke-miterlimit="10" d="M335.285,115.286c-1.437-4.2-3.445-8.777-6.036-13.625
						c14.249-25.616,12.308-58.053-5.811-81.473"/>
					<path fill="none" stroke="#FFFFFF" stroke-miterlimit="10" d="M350.482,115.736c-2.305-5.661-5.673-12.038-10.128-18.858
						c11.524-24.732,8.79-54.628-8.194-76.583"/>
					<path fill="#7AC943" d="M83.127,33.005c15.804-0.423,31.603-0.838,47.399-1.243c9.01,18.642,10.208,40.267,3.596,59.702
						c-16.475-0.994-32.971-2.009-49.488-3.045C90.741,70.208,90.234,50.403,83.127,33.005z"/>
					<path fill="#7AC943" d="M196.264,39.937c9.434-0.373,18.864-0.741,28.292-1.105c3.542,9.412,5.173,19.41,4.892,29.362
						c-9.59,0.407-19.183,0.817-28.778,1.229C201.105,59.457,199.637,49.418,196.264,39.937z"/>
					<path fill="#7AC943" d="M233.206,36.353"/>
					<path fill="#7AC943" d="M290.329,34.243c-9.842-0.448-19.688-0.897-29.539-1.349c14.575,31.383,6.254,71.535-24.996,94.025
						c10.089-0.723,20.157-1.452,30.204-2.189C295.198,102.381,303.292,64.414,290.329,34.243z"/>
					<path fill="#7AC943" d="M322.041,36.024c5.141,16.386,4.124,34.959-3.08,51.995c27.586,1.76,55.105,3.456,82.565,5.084
						c7.37-17.476,7.753-37.194,1.153-54.62C375.814,37.673,348.936,36.854,322.041,36.024z"/>
					<path fill="none" stroke="#FFFFFF" stroke-miterlimit="10" d="M60.505,18.171c19.419,25.726,21.038,61.085,4.854,88.416"/>
					<g>
						<path fill="none" stroke="#FFFFFF" stroke-miterlimit="10" d="M88.265,37.53c-0.41-1.076,0.111-1.932,1.197-1.923
							c1.086,0.008,2.326,0.876,2.735,1.952c0.411,1.076-0.164,1.948-1.25,1.941C89.862,39.492,88.677,38.607,88.265,37.53z"/>
						<path fill="none" stroke="#FFFFFF" stroke-miterlimit="10" d="M97.89,37.599c-0.409-1.073,0.111-1.927,1.2-1.919
							c1.084,0.008,2.323,0.875,2.732,1.947c0.41,1.074-0.167,1.943-1.25,1.936C99.484,39.556,98.3,38.673,97.89,37.599z"/>
						<path fill="none" stroke="#FFFFFF" stroke-miterlimit="10" d="M106.64,37.661c-0.408-1.071,0.113-1.923,1.2-1.915
							s2.324,0.873,2.731,1.943c0.41,1.071-0.167,1.939-1.252,1.932C108.233,39.614,107.05,38.734,106.64,37.661z"/>
						<path fill="none" stroke="#FFFFFF" stroke-miterlimit="10" d="M116.264,37.73c-0.407-1.068,0.116-1.918,1.203-1.91
							c1.085,0.008,2.324,0.871,2.731,1.938c0.408,1.069-0.171,1.934-1.255,1.927C117.856,39.678,116.672,38.8,116.264,37.73z"/>
						<path fill="none" stroke="#FFFFFF" stroke-miterlimit="10" d="M125.014,37.793c-0.406-1.066,0.117-1.915,1.204-1.906
							c1.086,0.009,2.322,0.869,2.728,1.934c0.407,1.066-0.17,1.93-1.256,1.923C126.604,39.736,125.422,38.86,125.014,37.793z"/>
					</g>
					<path fill="none" stroke="#FFFFFF" stroke-miterlimit="10" d="M127.773,46.526c-0.277-1.099,0.349-1.98,1.435-1.974
						c1.085,0.006,2.216,0.896,2.494,1.994c0.278,1.1-0.402,1.993-1.487,1.988C129.13,48.529,128.052,47.627,127.773,46.526z"/>
					<path fill="none" stroke="#FFFFFF" stroke-miterlimit="10" d="M129.37,54.579c-0.162-1.119,0.559-2.02,1.644-2.016
						c1.084,0.004,2.122,0.91,2.283,2.027c0.162,1.119-0.612,2.026-1.697,2.023C130.516,56.61,129.532,55.699,129.37,54.579z"/>
					<path fill="none" stroke="#FFFFFF" stroke-miterlimit="10" d="M130.157,63.646c-0.033-1.13,0.792-2.044,1.876-2.043
						c1.084,0.001,2.017,0.916,2.05,2.045c0.034,1.127-0.845,2.041-1.929,2.041S130.191,64.774,130.157,63.646z"/>
					<path fill="none" stroke="#FFFFFF" stroke-miterlimit="10" d="M93.059,84.591c0.266-1.113,1.333-2.023,2.417-2.028
						c1.085-0.004,1.777,0.897,1.511,2.009c-0.265,1.112-1.385,2.011-2.471,2.017C93.431,86.595,92.794,85.705,93.059,84.591z"/>
					<path fill="none" stroke="#FFFFFF" stroke-miterlimit="10" d="M102.457,85.44c0.279-1.109,1.355-2.014,2.44-2.019
						c1.085-0.004,1.768,0.892,1.489,2c-0.277,1.105-1.408,2-2.493,2.006C102.808,87.433,102.18,86.547,102.457,85.44z"/>
					<path fill="none" stroke="#FFFFFF" stroke-miterlimit="10" d="M111.847,86.282c0.291-1.104,1.377-2.007,2.462-2.012
						c1.085-0.005,1.757,0.889,1.466,1.991c-0.289,1.1-1.43,1.99-2.515,1.997S111.558,87.383,111.847,86.282z"/>
					<path fill="none" stroke="#FFFFFF" stroke-miterlimit="10" d="M122.101,87.112c0.303-1.098,1.401-1.997,2.485-2.001
						c1.085-0.005,1.747,0.884,1.444,1.98c-0.301,1.094-1.452,1.98-2.538,1.986C122.409,89.084,121.799,88.208,122.101,87.112z"/>
					<path fill="none" stroke="#FFFFFF" stroke-miterlimit="10" d="M90.932,36.085c3.217-6.498,5.54-12.669,6.978-18.316"/>
					<path fill="none" stroke="#FFFFFF" stroke-miterlimit="10" d="M100.552,36.158c3.132-6.662,5.321-12.98,6.579-18.741"/>
					<path fill="none" stroke="#FFFFFF" stroke-miterlimit="10" d="M109.302,36.224c3.139-6.646,5.335-12.951,6.604-18.699"/>
					<path fill="none" stroke="#FFFFFF" stroke-miterlimit="10" d="M118.929,36.296c3.145-6.63,5.35-12.919,6.628-18.653"/>
					<path fill="none" stroke="#FFFFFF" stroke-miterlimit="10" d="M127.68,36.362c3.15-6.616,5.364-12.89,6.654-18.611"/>
					<path fill="none" stroke="#FFFFFF" stroke-miterlimit="10" d="M131.702,46.545c23.163-0.307,46.325-0.606,69.485-0.897"/>
					<path fill="none" stroke="#FFFFFF" stroke-miterlimit="10" d="M133.694,54.989c22.969-0.307,45.936-0.606,68.901-0.899"/>
					<path fill="none" stroke="#FFFFFF" stroke-miterlimit="10" d="M134.425,63.648c23.005-0.355,46.008-0.704,69.008-1.046"/>
					<path fill="none" stroke="#FFFFFF" stroke-miterlimit="10" d="M94.904,86.588c6.765,11.282,11.014,21.911,12.802,30.961"/>
					<path fill="none" stroke="#FFFFFF" stroke-miterlimit="10" d="M157.708,87.794c0.313-1.083,1.417-1.972,2.504-1.977
						c1.085-0.005,1.739,0.873,1.426,1.956c-0.311,1.082-1.47,1.956-2.555,1.963C157.996,89.742,157.396,88.876,157.708,87.794z"/>
					<path fill="none" stroke="#FFFFFF" stroke-miterlimit="10" d="M166.451,87.746c0.312-1.081,1.417-1.968,2.504-1.973
						c1.084-0.005,1.739,0.871,1.427,1.951c-0.31,1.079-1.469,1.952-2.553,1.958C166.742,89.689,166.141,88.826,166.451,87.746z"/>
					<path fill="none" stroke="#FFFFFF" stroke-miterlimit="10" d="M175.197,87.697c0.312-1.079,1.415-1.963,2.501-1.968
						c1.085-0.006,1.739,0.869,1.428,1.946c-0.31,1.077-1.466,1.948-2.551,1.954C175.488,89.636,174.888,88.774,175.197,87.697z"/>
					<path fill="none" stroke="#FFFFFF" stroke-miterlimit="10" d="M160.05,85.891c1.998-7.654,2.82-15.566,2.468-23.433"/>
					<path fill="none" stroke="#FFFFFF" stroke-miterlimit="10" d="M168.974,85.845c1.993-7.637,2.813-15.531,2.462-23.379"/>
					<path fill="none" stroke="#FFFFFF" stroke-miterlimit="10" d="M177.897,85.8c1.988-7.62,2.807-15.495,2.456-23.326"/>
					<path fill="none" stroke="#FFFFFF" stroke-miterlimit="10" d="M200.994,46.021c-0.285-1.076,0.337-1.938,1.423-1.932
						c1.084,0.006,2.223,0.877,2.507,1.952c0.286,1.076-0.39,1.949-1.474,1.944C202.365,47.98,201.28,47.097,200.994,46.021z"/>
					<path fill="none" stroke="#FFFFFF" stroke-miterlimit="10" d="M202.652,53.907c-0.171-1.097,0.543-1.979,1.628-1.975
						c1.084,0.004,2.13,0.892,2.301,1.987c0.172,1.095-0.595,1.984-1.679,1.981C203.816,55.898,202.824,55.003,202.652,53.907z"/>
					<path fill="none" stroke="#FFFFFF" stroke-miterlimit="10" d="M203.527,62.797c-0.045-1.109,0.771-2.004,1.856-2.003
						c1.083,0.001,2.026,0.898,2.071,2.006c0.046,1.104-0.823,2-1.907,2C204.462,64.8,203.572,63.902,203.527,62.797z"/>
					<path fill="none" stroke="#FFFFFF" stroke-miterlimit="10" d="M270.471,54.835c-14.835,15.13-34.217,31.053-58.333,45.368
						c-26.659,0.638-53.327,1.282-80.002,1.934c-1.983-4.279-4.388-8.746-7.22-13.335"/>
					<path fill="none" stroke="#FFFFFF" stroke-miterlimit="10" d="M271.749,65.617c-15.873,14.268-35.717,28.742-59.682,41.467
						c-28.657,0.659-57.322,1.325-85.996,1.998c-2.723-6.585-6.551-13.758-11.501-21.243"/>
					<path fill="none" stroke="#FFFFFF" stroke-miterlimit="10" d="M272.139,76.359c-16.719,13.101-36.839,25.969-60.481,37.055
						c-31.107,0.793-62.228,1.592-93.361,2.398c-2.403-8.421-6.863-18.12-13.424-28.391"/>
					<path fill="none" stroke="#FFFFFF" stroke-miterlimit="10" d="M215.205,117.145c21.109-9.14,39.598-19.74,55.546-30.804"/>
					<path fill="none" stroke="#FFFFFF" stroke-miterlimit="10" d="M269.812,53.25c-0.181-1.077,0.525-1.941,1.611-1.937
						c1.084,0.004,2.136,0.875,2.316,1.95c0.182,1.074-0.577,1.946-1.661,1.943C270.993,55.204,269.993,54.325,269.812,53.25z"/>
					<path fill="none" stroke="#FFFFFF" stroke-miterlimit="10" d="M271.737,64.608c-0.02-1.091,0.818-1.972,1.903-1.971
						s2.006,0.883,2.024,1.973c0.021,1.086-0.869,1.966-1.953,1.967C272.627,66.576,271.758,65.695,271.737,64.608z"/>
					<path fill="none" stroke="#FFFFFF" stroke-miterlimit="10" d="M272.082,75.113c0.13-1.083,1.087-1.964,2.172-1.966
						c1.086-0.002,1.886,0.876,1.756,1.957c-0.128,1.079-1.138,1.955-2.224,1.958C272.701,77.065,271.953,76.193,272.082,75.113z"/>
					<path fill="none" stroke="#FFFFFF" stroke-miterlimit="10" d="M270.986,85.467c0.279-1.06,1.357-1.926,2.443-1.931
						s1.766,0.853,1.486,1.911c-0.276,1.056-1.407,1.91-2.493,1.917C271.337,87.369,270.709,86.524,270.986,85.467z"/>
					<path fill="none" stroke="#FFFFFF" stroke-miterlimit="10" d="M286.618,40.599c-0.365-1.032,0.192-1.853,1.277-1.845
						s2.288,0.84,2.653,1.871c0.365,1.027-0.246,1.863-1.33,1.856C288.134,42.475,286.983,41.627,286.618,40.599z"/>
					<path fill="none" stroke="#FFFFFF" stroke-miterlimit="10" d="M289.065,49.025c-0.242-1.062,0.415-1.91,1.5-1.905
						c1.084,0.005,2.187,0.862,2.428,1.922c0.242,1.059-0.468,1.918-1.552,1.914C290.356,50.953,289.309,50.085,289.065,49.025z"/>
					<path fill="none" stroke="#FFFFFF" stroke-miterlimit="10" d="M289.643,57.644c-0.118-1.079,0.639-1.947,1.725-1.944
						c1.084,0.003,2.085,0.876,2.203,1.953c0.118,1.075-0.69,1.949-1.774,1.947C290.71,59.598,289.762,58.72,289.643,57.644z"/>
					<path fill="none" stroke="#FFFFFF" stroke-miterlimit="10" d="M290.1,66.359c0.006-1.084,0.862-1.962,1.947-1.961
						s1.984,0.878,1.979,1.961c-0.004,1.082-0.914,1.958-1.997,1.959C290.944,68.319,290.095,67.442,290.1,66.359z"/>
					<path fill="none" stroke="#FFFFFF" stroke-miterlimit="10" d="M289.66,74.203c0.117-1.08,1.063-1.957,2.148-1.958
						c1.084-0.002,1.896,0.872,1.778,1.95c-0.116,1.076-1.114,1.949-2.199,1.952S289.544,75.279,289.66,74.203z"/>
					<path fill="none" stroke="#FFFFFF" stroke-miterlimit="10" d="M287.539,81.975c0.229-1.065,1.266-1.934,2.35-1.937
						c1.087-0.004,1.808,0.857,1.58,1.92c-0.228,1.061-1.316,1.921-2.403,1.926C287.98,83.89,287.313,83.038,287.539,81.975z"/>
					<path fill="none" stroke="#FFFFFF" stroke-miterlimit="10" d="M285.207,90.435c0.352-1.035,1.49-1.886,2.575-1.893
						c1.088-0.007,1.709,0.833,1.357,1.867c-0.351,1.032-1.54,1.869-2.628,1.876C285.426,92.293,284.857,91.468,285.207,90.435z"/>
					<path fill="none" stroke="#FFFFFF" stroke-miterlimit="10" d="M281.881,98.614c0.474-0.993,1.714-1.816,2.8-1.825
						c1.088-0.009,1.609,0.8,1.136,1.791c-0.475,0.993-1.766,1.797-2.854,1.807C281.876,100.396,281.406,99.608,281.881,98.614z"/>
					<path fill="none" stroke="#FFFFFF" stroke-miterlimit="10" d="M277.557,106.419c0.6-0.941,1.94-1.727,3.027-1.737
						c1.089-0.012,1.512,0.755,0.913,1.695c-0.597,0.938-1.989,1.698-3.079,1.711C277.331,108.1,276.96,107.358,277.557,106.419z"/>
					<path fill="none" stroke="#FFFFFF" stroke-miterlimit="10" d="M301.999,107.646c0.619-0.924,1.978-1.693,3.064-1.705
						s1.494,0.738,0.875,1.661c-0.617,0.921-2.026,1.665-3.115,1.678C301.735,109.292,301.381,108.567,301.999,107.646z"/>
					<path fill="none" stroke="#FFFFFF" stroke-miterlimit="10" d="M314.679,76.731c0.153-1.067,1.13-1.938,2.216-1.941
						c1.083-0.002,1.866,0.864,1.713,1.93c-0.151,1.065-1.181,1.929-2.264,1.933C315.257,78.657,314.527,77.798,314.679,76.731z"/>
					<path fill="none" stroke="#FFFFFF" stroke-miterlimit="10" d="M305.513,83.598c0.251-1.054,1.308-1.915,2.394-1.919
						c1.085-0.004,1.787,0.849,1.536,1.901c-0.251,1.053-1.36,1.904-2.444,1.91C305.912,85.495,305.262,84.652,305.513,83.598z"/>
					<path fill="none" stroke="#FFFFFF" stroke-miterlimit="10" d="M310.867,91.915c0.374-1.021,1.531-1.862,2.618-1.869
						c1.085-0.007,1.688,0.822,1.314,1.841c-0.372,1.019-1.58,1.844-2.666,1.852C311.046,93.747,310.495,92.935,310.867,91.915z"/>
					<path fill="none" stroke="#FFFFFF" stroke-miterlimit="10" d="M299.485,100.042c0.497-0.979,1.755-1.792,2.842-1.801
						c1.087-0.01,1.591,0.787,1.094,1.766c-0.496,0.979-1.807,1.771-2.893,1.78C299.44,101.798,298.989,101.021,299.485,100.042z"/>
					<path fill="none" stroke="#FFFFFF" stroke-miterlimit="10" d="M316.03,59.428c-0.093-1.073,0.685-1.938,1.771-1.936
						c1.083,0.002,2.064,0.871,2.157,1.943c0.094,1.072-0.736,1.941-1.82,1.94C317.053,61.373,316.124,60.5,316.03,59.428z"/>
					<path fill="none" stroke="#FFFFFF" stroke-miterlimit="10" d="M312.819,43.254c-0.325-1.034,0.264-1.859,1.351-1.853
						c1.084,0.007,2.256,0.844,2.581,1.876c0.326,1.031-0.316,1.87-1.4,1.863C314.266,45.136,313.146,44.286,312.819,43.254z"/>
					<path fill="none" stroke="#FFFFFF" stroke-miterlimit="10" d="M306.919,50.808c-0.216-1.06,0.462-1.91,1.547-1.905
						c1.085,0.005,2.166,0.862,2.382,1.921c0.217,1.058-0.515,1.916-1.6,1.912C308.164,52.732,307.136,51.867,306.919,50.808z"/>
					<path fill="none" stroke="#FFFFFF" stroke-miterlimit="10" d="M307.548,68.095c0.031-1.08,0.907-1.952,1.992-1.952
						c1.084,0,1.966,0.871,1.936,1.95c-0.029,1.076-0.958,1.95-2.043,1.951C308.348,70.045,307.52,69.172,307.548,68.095z"/>
					<path fill="none" stroke="#FFFFFF" stroke-miterlimit="10" d="M290.549,40.625c7.439,0.877,14.863,1.753,22.271,2.629"/>
					<path fill="none" stroke="#FFFFFF" stroke-miterlimit="10" d="M292.993,49.043c4.649,0.589,9.291,1.178,13.926,1.765"/>
					<path fill="none" stroke="#FFFFFF" stroke-miterlimit="10" d="M293.57,57.652c7.493,0.595,14.979,1.187,22.46,1.775"/>
					<path fill="none" stroke="#FFFFFF" stroke-miterlimit="10" d="M294.026,66.359c4.514,0.581,9.021,1.16,13.521,1.736"/>
					<path fill="none" stroke="#FFFFFF" stroke-miterlimit="10" d="M293.587,74.194c7.045,0.852,14.075,1.698,21.092,2.537"/>
					<path fill="none" stroke="#FFFFFF" stroke-miterlimit="10" d="M291.469,81.958c4.688,0.55,9.368,1.097,14.044,1.64"/>
					<path fill="none" stroke="#FFFFFF" stroke-miterlimit="10" d="M289.14,90.409c7.248,0.507,14.49,1.009,21.728,1.506"/>
					<path fill="none" stroke="#FFFFFF" stroke-miterlimit="10" d="M285.816,98.58c4.562,0.492,9.118,0.979,13.669,1.462"/>
					<path fill="none" stroke="#FFFFFF" stroke-miterlimit="10" d="M281.497,106.377c6.839,0.429,13.673,0.852,20.502,1.269"/>
					<path fill="none" stroke="#FFFFFF" stroke-miterlimit="10" d="M359.976,40.737c-0.363-1.01,0.195-1.814,1.281-1.807
						c1.087,0.008,2.288,0.824,2.651,1.833c0.363,1.006-0.248,1.825-1.334,1.818S360.34,41.744,359.976,40.737z"/>
					<path fill="none" stroke="#FFFFFF" stroke-miterlimit="10" d="M368.869,41.202c-0.357-1.01,0.209-1.812,1.296-1.804
						c1.085,0.008,2.279,0.821,2.636,1.831c0.357,1.006-0.261,1.822-1.345,1.815C370.37,43.038,369.227,42.209,368.869,41.202z"/>
					<path fill="none" stroke="#FFFFFF" stroke-miterlimit="10" d="M377.759,41.666c-0.35-1.008,0.222-1.812,1.309-1.804
						c1.085,0.008,2.275,0.822,2.624,1.83c0.35,1.004-0.272,1.822-1.357,1.815C379.247,43.501,378.109,42.672,377.759,41.666z"/>
					<path fill="none" stroke="#FFFFFF" stroke-miterlimit="10" d="M386.646,42.129c-0.344-1.009,0.234-1.811,1.32-1.803
						c1.085,0.008,2.268,0.821,2.61,1.829c0.343,1.004-0.284,1.82-1.368,1.813C388.123,43.962,386.99,43.135,386.646,42.129z"/>
					<path fill="none" stroke="#FFFFFF" stroke-miterlimit="10" d="M395.531,42.59c-0.336-1.006,0.245-1.81,1.333-1.802
						c1.085,0.007,2.262,0.822,2.598,1.827c0.336,1.003-0.296,1.819-1.381,1.813C396.994,44.422,395.867,43.594,395.531,42.59z"/>
					<path fill="none" stroke="#FFFFFF" stroke-miterlimit="10" d="M397.578,49.979c-0.228-1.031,0.44-1.856,1.527-1.852
						c1.085,0.006,2.174,0.839,2.401,1.869c0.229,1.029-0.491,1.864-1.575,1.859C398.846,51.853,397.807,51.01,397.578,49.979z"/>
					<path fill="none" stroke="#FFFFFF" stroke-miterlimit="10" d="M398.842,57.517c-0.119-1.047,0.637-1.89,1.723-1.887
						c1.084,0.003,2.085,0.85,2.205,1.896c0.121,1.043-0.687,1.892-1.77,1.89C399.914,59.415,398.963,58.562,398.842,57.517z"/>
					<path fill="none" stroke="#FFFFFF" stroke-miterlimit="10" d="M399.328,65.979c0.001-1.053,0.854-1.905,1.939-1.904
						c1.083,0.001,1.987,0.853,1.987,1.904c0.001,1.049-0.903,1.901-1.986,1.902C400.183,67.882,399.329,67.029,399.328,65.979z"/>
					<path fill="none" stroke="#FFFFFF" stroke-miterlimit="10" d="M362.02,84.636c0.267-1.034,1.335-1.88,2.42-1.885
						c1.086-0.005,1.776,0.833,1.51,1.866c-0.266,1.033-1.388,1.868-2.473,1.874C362.392,86.497,361.753,85.67,362.02,84.636z"/>
					<path fill="none" stroke="#FFFFFF" stroke-miterlimit="10" d="M371.417,85.418c0.278-1.029,1.358-1.872,2.444-1.876
						c1.084-0.005,1.764,0.828,1.485,1.855c-0.276,1.025-1.405,1.857-2.49,1.864C371.771,87.268,371.14,86.445,371.417,85.418z"/>
					<path fill="none" stroke="#FFFFFF" stroke-miterlimit="10" d="M381.684,86.188c0.289-1.023,1.377-1.862,2.463-1.867
						c1.086-0.005,1.756,0.823,1.467,1.845c-0.287,1.02-1.426,1.847-2.512,1.854C382.015,88.026,381.396,87.209,381.684,86.188z"/>
					<path fill="none" stroke="#FFFFFF" stroke-miterlimit="10" d="M391.939,86.951c0.301-1.018,1.398-1.851,2.484-1.857
						c1.085-0.005,1.747,0.818,1.446,1.834c-0.3,1.016-1.446,1.837-2.532,1.844C392.251,88.779,391.64,87.968,391.939,86.951z"/>
					<path fill="none" stroke="#FFFFFF" stroke-miterlimit="10" d="M362.21,38.938c3.406-6.472,5.867-12.607,7.396-18.185"/>
					<path fill="none" stroke="#FFFFFF" stroke-miterlimit="10" d="M371.298,39.406c3.952-6.908,6.828-13.436,8.646-19.316"/>
					<path fill="none" stroke="#FFFFFF" stroke-miterlimit="10" d="M380.379,39.872c3.94-6.731,6.86-13.107,8.777-18.88"/>
					<path fill="none" stroke="#FFFFFF" stroke-miterlimit="10" d="M389.337,40.737c4.284-7.315,7.371-14.226,9.279-20.414"/>
					<path fill="none" stroke="#FFFFFF" stroke-miterlimit="10" d="M398.534,41.399c4.461-7.209,7.762-14.034,9.921-20.171"/>
					<path fill="none" stroke="#FFFFFF" stroke-miterlimit="10" d="M401.507,49.997c15.907,0.466,31.811,0.928,47.709,1.384"/>
					<path fill="none" stroke="#FFFFFF" stroke-miterlimit="10" d="M402.77,57.526c15.893,0.72,31.774,1.433,47.646,2.137"/>
					<path fill="none" stroke="#FFFFFF" stroke-miterlimit="10" d="M403.255,65.979c16.188,0.634,32.37,1.259,48.543,1.876"/>
					<path fill="none" stroke="#FFFFFF" stroke-miterlimit="10" d="M431.479,67.077c-0.149,6.985-1.291,13.958-3.428,20.675"/>
					<path fill="none" stroke="#FFFFFF" stroke-miterlimit="10" d="M440.511,67.42c-0.135,6.852-1.229,13.688-3.281,20.277"/>
					<path fill="none" stroke="#FFFFFF" stroke-miterlimit="10" d="M448.28,67.856c-0.128,6.69-1.172,13.36-3.131,19.793"/>
					<path fill="none" stroke="#FFFFFF" stroke-miterlimit="10" d="M363.477,86.491c6.948,10.324,11.618,20.011,14.063,28.238"/>
					<path fill="none" stroke="#FFFFFF" stroke-miterlimit="10" d="M374.007,87.053c6.19,9.683,10.361,18.789,12.558,26.629"/>
					<path fill="none" stroke="#FFFFFF" stroke-miterlimit="10" d="M440.126,102.677c-13.015-0.079-26.029-0.161-39.044-0.246
						c-1.797-4.349-4.08-8.931-6.854-13.664"/>
					<path fill="none" stroke="#FFFFFF" stroke-miterlimit="10" d="M436.575,108.968c-14.044-0.331-28.091-0.671-42.141-1.021
						c-2.279-6.229-5.655-13.072-10.148-20.242"/>
					<path fill="none" stroke="#FFFFFF" stroke-miterlimit="10" d="M425.388,89.58c0.34-0.997,1.47-1.817,2.555-1.823
						c1.085-0.006,1.715,0.803,1.376,1.798c-0.338,0.995-1.517,1.799-2.603,1.807C425.63,91.369,425.049,90.576,425.388,89.58z"/>
					<path fill="none" stroke="#FFFFFF" stroke-miterlimit="10" d="M434.634,89.919c0.345-0.992,1.479-1.809,2.564-1.815
						c1.086-0.007,1.712,0.799,1.368,1.79c-0.343,0.989-1.525,1.791-2.612,1.799C434.868,91.7,434.291,90.91,434.634,89.919z"/>
					<path fill="none" stroke="#FFFFFF" stroke-miterlimit="10" d="M442.508,89.868c0.344-0.99,1.478-1.805,2.563-1.812
						c1.085-0.007,1.712,0.797,1.368,1.786c-0.342,0.987-1.524,1.787-2.609,1.795C442.743,91.645,442.166,90.856,442.508,89.868z"/>
				</g>
			</g>
		</g>
		<g>
			<g>
				<defs>
					<path id="SVGID_5_" d="M71.353,28.149c-0.063-0.058,266.906-0.075,300.752,5.036c43.03,6.512,69.868,18.242,69.315,36.653
						c-0.081,16.108-18.853,33.02-70.67,38.439c-33.984,3.745-279.424,3.764-303.719,2.652
						C83.884,86.374,85.324,54.035,71.353,28.149z"/>
				</defs>
				<clipPath id="SVGID_6_">
					<use xlink:href="#SVGID_5_"  overflow="visible"/>
				</clipPath>
			</g>
		</g>
	</g>
</g>
<g id="outline">
	<path fill="none" stroke="#000000" stroke-width="4" stroke-miterlimit="10" d="M81,29.603c0,0,265.933-2.948,297,2.476
		c39.786,6.945,61.168,19.441,61.375,38.421c0.18,16.439-19.698,30.005-59.375,37.396c-30.377,5.659-274,4.61-299,3.16V29.603z"/>
</g>
<g id="eyes">
	<path fill="none" stroke="#000000" stroke-width="2" stroke-linecap="round" stroke-miterlimit="10" d="M369.752,76.691
		c-2.755,5.165,11.362,5.682,7.654-1.012"/>
	<g>
		
			<circle fill="#294F23" stroke="#000000" stroke-width="2" stroke-linecap="round" stroke-linejoin="round" stroke-miterlimit="10" cx="344.969" cy="62.888" r="12.912"/>
		
			<circle stroke="#000000" stroke-width="2" stroke-linecap="round" stroke-linejoin="round" stroke-miterlimit="10" cx="344.968" cy="62.888" r="9.125"/>
		<circle fill="#FFFFFF" cx="350.595" cy="57.979" r="3.787"/>
		<circle fill="#FFFFFF" cx="349.372" cy="65.312" r="1.953"/>
	</g>
	<g>
		
			<circle fill="#294F23" stroke="#000000" stroke-width="2" stroke-linecap="round" stroke-linejoin="round" stroke-miterlimit="10" cx="378.215" cy="57.955" r="12.912"/>
		
			<circle stroke="#000000" stroke-width="2" stroke-linecap="round" stroke-linejoin="round" stroke-miterlimit="10" cx="378.216" cy="57.955" r="9.124"/>
		<circle fill="#FFFFFF" cx="383.841" cy="53.045" r="3.787"/>
		<circle fill="#FFFFFF" cx="382.619" cy="60.378" r="1.953"/>
	</g>
</g>
<g id="knob">
	<g>
		<path fill="#4D4D4D" d="M41,114.001v-88l38.961,0.025c6.561,0,13.584,17.721,13.584,44.101c0,27.108-7.05,43.888-13.583,43.888h0
			L41,114.001z"/>
		<path d="M43,28.001l36.962,0.025c1.905,0,4.93,3.333,7.394,10.781c2.701,8.166,4.189,19.289,4.189,31.32
			c0,27.891-7.426,41.888-11.581,41.888L43,112.001V28.001 M39,24v92l40.962,0.015c9.067,0,15.583-20.486,15.583-45.888
			c0-25.402-6.516-46.101-15.583-46.101L39,24L39,24z"/>
	</g>
	<g>
		<path fill="#4D4D4D" d="M40,114.125c-6.622,0-14-18.096-14-44.062C26,44.096,33.378,26,40,26s14,18.096,14,44.063
			C54,96.029,46.622,114.125,40,114.125z"/>
		<path d="M40,28c4.073,0,12,14.847,12,42.063c0,27.215-7.927,42.062-12,42.062S28,97.278,28,70.063C28,42.847,35.927,28,40,28
			 M40,24c-8.836,0-16,20.624-16,46.063c0,25.438,7.164,46.062,16,46.062s16-20.624,16-46.062C56,44.624,48.836,24,40,24L40,24z"/>
	</g>
	<g id="knob_texture">
		<line fill="none" stroke="#000000" stroke-miterlimit="10" x1="50" y1="34.5" x2="87" y2="34.5"/>
		<line fill="none" stroke="#000000" stroke-miterlimit="10" x1="52" y1="40.5" x2="88" y2="40.5"/>
		<line fill="none" stroke="#000000" stroke-miterlimit="10" x1="52" y1="46.5" x2="90" y2="46.5"/>
		<line fill="none" stroke="#000000" stroke-miterlimit="10" x1="52" y1="52.5" x2="92" y2="52.5"/>
		<line fill="none" stroke="#000000" stroke-miterlimit="10" x1="54" y1="58.5" x2="92" y2="58.5"/>
		<line fill="none" stroke="#000000" stroke-miterlimit="10" x1="54" y1="64.5" x2="92" y2="64.5"/>
		<line fill="none" stroke="#000000" stroke-miterlimit="10" x1="54" y1="70.5" x2="94" y2="70.5"/>
		<line fill="none" stroke="#000000" stroke-miterlimit="10" x1="54" y1="76.5" x2="92" y2="76.5"/>
		<line fill="none" stroke="#000000" stroke-miterlimit="10" x1="54" y1="82.5" x2="92" y2="82.5"/>
		<line fill="none" stroke="#000000" stroke-miterlimit="10" x1="54" y1="88.5" x2="92" y2="88.5"/>
		<line fill="none" stroke="#000000" stroke-miterlimit="10" x1="52" y1="94.5" x2="90" y2="94.5"/>
		<line fill="none" stroke="#000000" stroke-miterlimit="10" x1="50" y1="100.5" x2="89" y2="100.5"/>
		<line fill="none" stroke="#000000" stroke-miterlimit="10" x1="48" y1="106.5" x2="86" y2="106.5"/>
	</g>
</g>
</svg>
