<svg class="svg-inline--fa fa-patreon fa-w-16" aria-hidden="true" data-prefix="fab" data-icon="patreon" role="img" xmlns="http://www.w3.org/2000/svg" viewBox="0 0 448 512" data-fa-i2svg=""><path fill="currentColor" d="M56 32C25.1 32 0 57.1 0 88v336c0 30.9 25.1 56 56 56h336c30.9 0 56-25.1 56-56V88c0-30.9-25.1-56-56-56H56zm2.2 65h58.29v318h-58.3V97zm212.56 0c65.67 0 119.04 53.56 119.04 119.36 0 65.61-53.37 119.04-119.04 119.04-65.86 0-119.43-53.36-119.43-119.04C151.33 150.56 204.9 97 270.76 97z"></path></svg>
